<mxfile host="Electron" modified="2024-08-23T20:47:51.966Z" agent="Mozilla/5.0 (Windows NT 10.0; Win64; x64) AppleWebKit/537.36 (KHTML, like Gecko) draw.io/24.1.0 Chrome/120.0.6099.109 Electron/28.1.0 Safari/537.36" etag="8aBH290xI_r85yVu8IJe" version="24.1.0" type="device">
  <diagram id="C5RBs43oDa-KdzZeNtuy" name="Page-1">
    <mxGraphModel dx="1114" dy="720" grid="1" gridSize="10" guides="1" tooltips="1" connect="1" arrows="1" fold="1" page="1" pageScale="1" pageWidth="827" pageHeight="1169" math="0" shadow="0">
      <root>
        <mxCell id="WIyWlLk6GJQsqaUBKTNV-0" />
        <mxCell id="WIyWlLk6GJQsqaUBKTNV-1" parent="WIyWlLk6GJQsqaUBKTNV-0" />
        <mxCell id="qH0m7w2ZkpXctMl2pn_O-13" value="&lt;font style=&quot;font-size: 14px;&quot;&gt;Current data&lt;/font&gt;" style="edgeStyle=orthogonalEdgeStyle;rounded=0;orthogonalLoop=1;jettySize=auto;html=1;entryX=0.5;entryY=0;entryDx=0;entryDy=0;sketch=1;curveFitting=1;jiggle=2;shadow=1;" edge="1" parent="WIyWlLk6GJQsqaUBKTNV-1" source="qH0m7w2ZkpXctMl2pn_O-0" target="qH0m7w2ZkpXctMl2pn_O-1">
          <mxGeometry relative="1" as="geometry" />
        </mxCell>
        <mxCell id="qH0m7w2ZkpXctMl2pn_O-0" value="&lt;font style=&quot;font-size: 16px;&quot;&gt;Market&lt;/font&gt;" style="ellipse;shape=cloud;whiteSpace=wrap;html=1;sketch=1;curveFitting=1;jiggle=2;fillColor=#e1d5e7;strokeColor=#9673a6;fontStyle=1" vertex="1" parent="WIyWlLk6GJQsqaUBKTNV-1">
          <mxGeometry x="285" y="50" width="250" height="100" as="geometry" />
        </mxCell>
        <mxCell id="qH0m7w2ZkpXctMl2pn_O-15" style="edgeStyle=orthogonalEdgeStyle;rounded=0;orthogonalLoop=1;jettySize=auto;html=1;sketch=1;curveFitting=1;jiggle=2;shadow=1;" edge="1" parent="WIyWlLk6GJQsqaUBKTNV-1" source="qH0m7w2ZkpXctMl2pn_O-1" target="qH0m7w2ZkpXctMl2pn_O-2">
          <mxGeometry relative="1" as="geometry" />
        </mxCell>
        <mxCell id="qH0m7w2ZkpXctMl2pn_O-1" value="&lt;font style=&quot;font-size: 16px;&quot;&gt;Monitoring module&lt;/font&gt;" style="rounded=1;whiteSpace=wrap;html=1;sketch=1;curveFitting=1;jiggle=2;fillColor=#dae8fc;strokeColor=#6c8ebf;fontStyle=1" vertex="1" parent="WIyWlLk6GJQsqaUBKTNV-1">
          <mxGeometry x="350" y="190" width="120" height="60" as="geometry" />
        </mxCell>
        <mxCell id="qH0m7w2ZkpXctMl2pn_O-17" value="&lt;font style=&quot;font-size: 14px;&quot;&gt;Predicted price&lt;/font&gt;" style="edgeStyle=orthogonalEdgeStyle;rounded=0;orthogonalLoop=1;jettySize=auto;html=1;entryX=0.5;entryY=0;entryDx=0;entryDy=0;sketch=1;curveFitting=1;jiggle=2;shadow=1;" edge="1" parent="WIyWlLk6GJQsqaUBKTNV-1" source="qH0m7w2ZkpXctMl2pn_O-2" target="qH0m7w2ZkpXctMl2pn_O-4">
          <mxGeometry relative="1" as="geometry">
            <Array as="points">
              <mxPoint x="410" y="350" />
              <mxPoint x="410" y="350" />
            </Array>
          </mxGeometry>
        </mxCell>
        <mxCell id="qH0m7w2ZkpXctMl2pn_O-2" value="&lt;font style=&quot;font-size: 16px;&quot;&gt;Price model&lt;/font&gt;" style="rounded=1;whiteSpace=wrap;html=1;sketch=1;curveFitting=1;jiggle=2;shadow=0;glass=0;fillColor=#dae8fc;strokeColor=#6c8ebf;fontStyle=1" vertex="1" parent="WIyWlLk6GJQsqaUBKTNV-1">
          <mxGeometry x="350" y="280" width="120" height="60" as="geometry" />
        </mxCell>
        <mxCell id="qH0m7w2ZkpXctMl2pn_O-16" style="edgeStyle=orthogonalEdgeStyle;rounded=0;orthogonalLoop=1;jettySize=auto;html=1;entryX=1;entryY=0.5;entryDx=0;entryDy=0;sketch=1;curveFitting=1;jiggle=2;shadow=1;" edge="1" parent="WIyWlLk6GJQsqaUBKTNV-1" source="qH0m7w2ZkpXctMl2pn_O-3" target="qH0m7w2ZkpXctMl2pn_O-2">
          <mxGeometry relative="1" as="geometry">
            <Array as="points">
              <mxPoint x="570" y="310" />
            </Array>
          </mxGeometry>
        </mxCell>
        <mxCell id="qH0m7w2ZkpXctMl2pn_O-33" value="&lt;font style=&quot;font-size: 14px;&quot;&gt;Old data&lt;/font&gt;" style="edgeLabel;html=1;align=center;verticalAlign=middle;resizable=0;points=[];" vertex="1" connectable="0" parent="qH0m7w2ZkpXctMl2pn_O-16">
          <mxGeometry x="-0.5324" relative="1" as="geometry">
            <mxPoint as="offset" />
          </mxGeometry>
        </mxCell>
        <mxCell id="qH0m7w2ZkpXctMl2pn_O-3" value="&lt;font style=&quot;font-size: 16px;&quot;&gt;Database&lt;/font&gt;" style="shape=cylinder3;whiteSpace=wrap;html=1;boundedLbl=1;backgroundOutline=1;size=15;sketch=1;curveFitting=1;jiggle=2;fillColor=#dae8fc;strokeColor=#6c8ebf;fontStyle=1" vertex="1" parent="WIyWlLk6GJQsqaUBKTNV-1">
          <mxGeometry x="520" y="185" width="115" height="70" as="geometry" />
        </mxCell>
        <mxCell id="qH0m7w2ZkpXctMl2pn_O-18" style="edgeStyle=orthogonalEdgeStyle;rounded=0;orthogonalLoop=1;jettySize=auto;html=1;entryX=0.5;entryY=0;entryDx=0;entryDy=0;sketch=1;curveFitting=1;jiggle=2;shadow=1;" edge="1" parent="WIyWlLk6GJQsqaUBKTNV-1" source="qH0m7w2ZkpXctMl2pn_O-4" target="qH0m7w2ZkpXctMl2pn_O-5">
          <mxGeometry relative="1" as="geometry" />
        </mxCell>
        <mxCell id="qH0m7w2ZkpXctMl2pn_O-38" value="&lt;font style=&quot;font-size: 14px;&quot;&gt;Order decision&lt;/font&gt;" style="edgeLabel;html=1;align=center;verticalAlign=middle;resizable=0;points=[];" vertex="1" connectable="0" parent="qH0m7w2ZkpXctMl2pn_O-18">
          <mxGeometry x="0.0751" relative="1" as="geometry">
            <mxPoint y="-1" as="offset" />
          </mxGeometry>
        </mxCell>
        <mxCell id="qH0m7w2ZkpXctMl2pn_O-4" value="&lt;font style=&quot;font-size: 16px;&quot;&gt;Trading module&lt;/font&gt;" style="rounded=1;whiteSpace=wrap;html=1;sketch=1;curveFitting=1;jiggle=2;shadow=0;fillColor=#dae8fc;strokeColor=#6c8ebf;fontStyle=1" vertex="1" parent="WIyWlLk6GJQsqaUBKTNV-1">
          <mxGeometry x="350" y="370" width="120" height="60" as="geometry" />
        </mxCell>
        <mxCell id="qH0m7w2ZkpXctMl2pn_O-20" style="edgeStyle=orthogonalEdgeStyle;rounded=0;orthogonalLoop=1;jettySize=auto;html=1;entryX=0.5;entryY=0;entryDx=0;entryDy=0;sketch=1;curveFitting=1;jiggle=2;shadow=1;" edge="1" parent="WIyWlLk6GJQsqaUBKTNV-1" source="qH0m7w2ZkpXctMl2pn_O-5" target="qH0m7w2ZkpXctMl2pn_O-8">
          <mxGeometry relative="1" as="geometry" />
        </mxCell>
        <mxCell id="qH0m7w2ZkpXctMl2pn_O-40" value="&lt;font style=&quot;font-size: 14px;&quot;&gt;Order&lt;/font&gt;" style="edgeLabel;html=1;align=center;verticalAlign=middle;resizable=0;points=[];" vertex="1" connectable="0" parent="qH0m7w2ZkpXctMl2pn_O-20">
          <mxGeometry x="-0.0225" y="-1" relative="1" as="geometry">
            <mxPoint as="offset" />
          </mxGeometry>
        </mxCell>
        <mxCell id="qH0m7w2ZkpXctMl2pn_O-5" value="&lt;font style=&quot;font-size: 16px;&quot;&gt;Order module&lt;/font&gt;" style="rounded=0;whiteSpace=wrap;html=1;sketch=1;curveFitting=1;jiggle=2;shadow=0;fillColor=#dae8fc;strokeColor=#6c8ebf;fontStyle=1" vertex="1" parent="WIyWlLk6GJQsqaUBKTNV-1">
          <mxGeometry x="350" y="470" width="120" height="60" as="geometry" />
        </mxCell>
        <mxCell id="qH0m7w2ZkpXctMl2pn_O-7" value="&lt;font style=&quot;font-size: 16px;&quot;&gt;Order suceed?&lt;/font&gt;" style="rhombus;whiteSpace=wrap;html=1;rounded=1;sketch=1;curveFitting=1;jiggle=2;fillColor=#dae8fc;strokeColor=#6c8ebf;fontStyle=1" vertex="1" parent="WIyWlLk6GJQsqaUBKTNV-1">
          <mxGeometry x="520" y="440" width="140" height="80" as="geometry" />
        </mxCell>
        <mxCell id="qH0m7w2ZkpXctMl2pn_O-21" style="edgeStyle=orthogonalEdgeStyle;rounded=0;orthogonalLoop=1;jettySize=auto;html=1;entryX=0.5;entryY=1;entryDx=0;entryDy=0;sketch=1;curveFitting=1;jiggle=2;shadow=1;" edge="1" parent="WIyWlLk6GJQsqaUBKTNV-1" source="qH0m7w2ZkpXctMl2pn_O-8" target="qH0m7w2ZkpXctMl2pn_O-7">
          <mxGeometry relative="1" as="geometry" />
        </mxCell>
        <mxCell id="qH0m7w2ZkpXctMl2pn_O-41" value="&lt;font style=&quot;font-size: 14px;&quot;&gt;Reponse from exchange&lt;/font&gt;" style="edgeLabel;html=1;align=center;verticalAlign=middle;resizable=0;points=[];" vertex="1" connectable="0" parent="qH0m7w2ZkpXctMl2pn_O-21">
          <mxGeometry x="0.4248" y="1" relative="1" as="geometry">
            <mxPoint as="offset" />
          </mxGeometry>
        </mxCell>
        <mxCell id="qH0m7w2ZkpXctMl2pn_O-8" value="&lt;font style=&quot;font-size: 16px;&quot;&gt;Exchange&lt;/font&gt;" style="ellipse;whiteSpace=wrap;html=1;sketch=1;curveFitting=1;jiggle=2;shadow=0;fillColor=#e1d5e7;strokeColor=#9673a6;fontStyle=1" vertex="1" parent="WIyWlLk6GJQsqaUBKTNV-1">
          <mxGeometry x="320" y="580" width="180" height="90" as="geometry" />
        </mxCell>
        <mxCell id="qH0m7w2ZkpXctMl2pn_O-12" value="" style="endArrow=classic;html=1;rounded=0;entryX=-0.023;entryY=0.832;entryDx=0;entryDy=0;entryPerimeter=0;sketch=1;curveFitting=1;jiggle=2;" edge="1" parent="WIyWlLk6GJQsqaUBKTNV-1" target="qH0m7w2ZkpXctMl2pn_O-4">
          <mxGeometry width="50" height="50" relative="1" as="geometry">
            <mxPoint x="290" y="450" as="sourcePoint" />
            <mxPoint x="350" y="420" as="targetPoint" />
          </mxGeometry>
        </mxCell>
        <mxCell id="qH0m7w2ZkpXctMl2pn_O-14" style="edgeStyle=orthogonalEdgeStyle;rounded=0;orthogonalLoop=1;jettySize=auto;html=1;entryX=0;entryY=0.5;entryDx=0;entryDy=0;entryPerimeter=0;sketch=1;curveFitting=1;jiggle=2;shadow=1;" edge="1" parent="WIyWlLk6GJQsqaUBKTNV-1" source="qH0m7w2ZkpXctMl2pn_O-1" target="qH0m7w2ZkpXctMl2pn_O-3">
          <mxGeometry relative="1" as="geometry" />
        </mxCell>
        <mxCell id="qH0m7w2ZkpXctMl2pn_O-23" style="edgeStyle=orthogonalEdgeStyle;rounded=0;orthogonalLoop=1;jettySize=auto;html=1;entryX=1;entryY=0.5;entryDx=0;entryDy=0;exitX=0.5;exitY=0;exitDx=0;exitDy=0;sketch=1;curveFitting=1;jiggle=2;shadow=1;" edge="1" parent="WIyWlLk6GJQsqaUBKTNV-1" source="qH0m7w2ZkpXctMl2pn_O-7" target="qH0m7w2ZkpXctMl2pn_O-4">
          <mxGeometry relative="1" as="geometry">
            <Array as="points">
              <mxPoint x="590" y="400" />
            </Array>
          </mxGeometry>
        </mxCell>
        <mxCell id="qH0m7w2ZkpXctMl2pn_O-24" value="&lt;font style=&quot;font-size: 16px;&quot;&gt;Leverage&lt;/font&gt;" style="text;html=1;align=center;verticalAlign=middle;whiteSpace=wrap;rounded=0;sketch=1;curveFitting=1;jiggle=2;shadow=1;fontStyle=1" vertex="1" parent="WIyWlLk6GJQsqaUBKTNV-1">
          <mxGeometry x="200" y="385" width="60" height="30" as="geometry" />
        </mxCell>
        <mxCell id="qH0m7w2ZkpXctMl2pn_O-25" value="&lt;font style=&quot;font-size: 16px;&quot;&gt;Fee&lt;/font&gt;" style="text;html=1;align=center;verticalAlign=middle;whiteSpace=wrap;rounded=0;fontStyle=1" vertex="1" parent="WIyWlLk6GJQsqaUBKTNV-1">
          <mxGeometry x="230" y="440" width="60" height="20" as="geometry" />
        </mxCell>
        <mxCell id="qH0m7w2ZkpXctMl2pn_O-26" value="&lt;font style=&quot;font-size: 16px;&quot;&gt;Tax&lt;/font&gt;" style="text;html=1;align=center;verticalAlign=middle;whiteSpace=wrap;rounded=0;fontStyle=1" vertex="1" parent="WIyWlLk6GJQsqaUBKTNV-1">
          <mxGeometry x="240" y="310" width="60" height="30" as="geometry" />
        </mxCell>
        <mxCell id="qH0m7w2ZkpXctMl2pn_O-28" value="" style="endArrow=classic;html=1;rounded=0;entryX=0;entryY=0;entryDx=0;entryDy=0;exitX=1;exitY=0.5;exitDx=0;exitDy=0;sketch=1;curveFitting=1;jiggle=2;" edge="1" parent="WIyWlLk6GJQsqaUBKTNV-1" source="qH0m7w2ZkpXctMl2pn_O-26" target="qH0m7w2ZkpXctMl2pn_O-4">
          <mxGeometry width="50" height="50" relative="1" as="geometry">
            <mxPoint x="271.5" y="345" as="sourcePoint" />
            <mxPoint x="328.5" y="305" as="targetPoint" />
          </mxGeometry>
        </mxCell>
        <mxCell id="qH0m7w2ZkpXctMl2pn_O-42" value="" style="edgeStyle=orthogonalEdgeStyle;rounded=0;orthogonalLoop=1;jettySize=auto;html=1;sketch=1;curveFitting=1;jiggle=2;" edge="1" parent="WIyWlLk6GJQsqaUBKTNV-1">
          <mxGeometry relative="1" as="geometry">
            <mxPoint x="270" y="400" as="sourcePoint" />
            <mxPoint x="350" y="400" as="targetPoint" />
            <Array as="points">
              <mxPoint x="318" y="400" />
            </Array>
          </mxGeometry>
        </mxCell>
      </root>
    </mxGraphModel>
  </diagram>
</mxfile>
